
<svg xmlns="http://www.w3.org/2000/svg" style="display: none;">
  <!-- GitHub Icon -->
  <symbol id="social-github" viewBox="0 0 24 24" fill="none">
    <g clip-path="url(#social-github_0)">
      <path fill-rule="evenodd" clip-rule="evenodd" d="M12.0099 0C5.36875 0 0 5.40833 0 12.0992C0 17.4475 3.43994 21.9748 8.21205 23.5771C8.80869 23.6976 9.02724 23.3168 9.02724 22.9965C9.02724 22.716 9.00757 21.7545 9.00757 20.7527C5.6667 21.474 4.97099 19.3104 4.97099 19.3104C4.43409 17.9082 3.63858 17.5478 3.63858 17.5478C2.54511 16.8066 3.71823 16.8066 3.71823 16.8066C4.93117 16.8868 5.56763 18.0486 5.56763 18.0486C6.64118 19.8913 8.37111 19.3707 9.06706 19.0501C9.16638 18.2688 9.48473 17.728 9.82275 17.4276C7.15817 17.1471 4.35469 16.1055 4.35469 11.458C4.35469 10.1359 4.8316 9.05428 5.58729 8.21304C5.46807 7.91263 5.0504 6.67043 5.70677 5.00787C5.70677 5.00787 6.72083 4.6873 9.00732 6.24981C9.98625 5.98497 10.9958 5.85024 12.0099 5.84911C13.024 5.84911 14.0577 5.98948 15.0123 6.24981C17.299 4.6873 18.3131 5.00787 18.3131 5.00787C18.9695 6.67043 18.5515 7.91263 18.4323 8.21304C19.2079 9.05428 19.6652 10.1359 19.6652 11.458C19.6652 16.1055 16.8617 17.1269 14.1772 17.4276C14.6148 17.8081 14.9924 18.5292 14.9924 19.6711C14.9924 21.2936 14.9727 22.5957 14.9727 22.9962C14.9727 23.3168 15.1915 23.6976 15.7879 23.5774C20.56 21.9745 23.9999 17.4475 23.9999 12.0992C24.0196 5.40833 18.6312 0 12.0099 0Z" fill="currentColor"/>
    </g>
    <defs>
      <clipPath id="social-github_0">
        <rect width="24" height="24" fill="white"/>
      </clipPath>
    </defs>
  </symbol>

  <!-- Kakao Icon -->
  <symbol id="social-kakao" viewBox="0 0 24 24" fill="none">
    <g clip-path="url(#social-kakao_0)">
      <path d="M22.125 0H1.875C0.8394 0 0 0.8394 0 1.875V22.125C0 23.1606 0.8394 24 1.875 24H22.125C23.1606 24 24 23.1606 24 22.125V1.875C24 0.8394 23.1606 0 22.125 0ZM12 18.75C11.409 18.75 10.8303 18.7087 10.2683 18.6291C9.7057 19.0256 6.4553 21.3088 6.1485 21.3516C6.1485 21.3516 6.0227 21.4005 5.9157 21.3375C5.8087 21.2745 5.8281 21.1093 5.8281 21.1093C5.8603 20.8895 6.6707 18.091 6.8201 17.576C4.0749 16.216 2.25 13.8074 2.25 11.0625C2.25 6.8168 6.6152 3.375 12 3.375C17.3848 3.375 21.75 6.8168 21.75 11.0625C21.75 15.3082 17.3848 18.75 12 18.75ZM8.0496 9.8672H7.1719V13.2089C7.1719 13.5052 6.9196 13.7461 6.6094 13.7461C6.2992 13.7461 6.0469 13.5052 6.0469 13.2089V9.8672H5.1692C4.8648 9.8672 4.6172 9.6201 4.6172 9.3164C4.6172 9.0127 4.8649 8.7656 5.1692 8.7656H8.0496C8.354 8.7656 8.6016 9.0127 8.6016 9.3164C8.6016 9.6201 8.3539 9.8672 8.0496 9.8672ZM19.0375 12.8238C19.0822 12.8826 19.1148 12.9498 19.1333 13.0213C19.1518 13.0928 19.156 13.1674 19.1455 13.2405C19.1354 13.3137 19.111 13.3842 19.0735 13.4479C19.036 13.5115 18.9863 13.5672 18.9272 13.6115C18.8299 13.6854 18.7111 13.7253 18.5889 13.725C18.5017 13.7254 18.4157 13.7054 18.3377 13.6666C18.2597 13.6277 18.1918 13.5712 18.1396 13.5014L16.8204 11.7535L16.6252 11.9487V13.176C16.625 13.3252 16.5657 13.4682 16.4602 13.5737C16.3547 13.6792 16.2117 13.7386 16.0625 13.7388C15.9134 13.7387 15.7704 13.6794 15.6649 13.5739C15.5594 13.4684 15.5001 13.3254 15.5 13.1763V9.3281C15.5 9.0179 15.7523 8.7656 16.0625 8.7656C16.3727 8.7656 16.625 9.0179 16.625 9.3281V10.5371L18.1944 8.9677C18.2751 8.887 18.386 8.8425 18.5064 8.8425C18.6468 8.8425 18.7878 8.9031 18.8935 9.0086C18.992 9.107 19.0508 9.2337 19.0589 9.3652C19.0671 9.4979 19.0229 9.6194 18.9348 9.7077L17.653 10.9894L19.0375 12.8238ZM10.6873 9.3215C10.5923 9.0516 10.3044 8.774 9.937 8.7658C9.5707 8.7741 9.2828 9.0516 9.188 9.3209L7.8425 12.8624C7.6717 13.3929 7.8208 13.5896 7.9758 13.6612C8.08802 13.7125 8.21 13.739 8.3334 13.7388C8.568 13.7388 8.7473 13.6436 8.8012 13.4907L9.0799 12.761L10.7951 12.7611L11.0736 13.4903C11.1277 13.6435 11.3071 13.7387 11.5417 13.7387C11.6651 13.7388 11.787 13.7124 11.8993 13.6612C12.0544 13.5899 12.2034 13.3931 12.0322 12.8613L10.6873 9.3215ZM9.3757 11.7648L9.9375 10.1687L10.4993 11.7648H9.3757ZM15.2813 13.1484C15.2813 13.4327 15.0395 13.664 14.7422 13.664H12.9375C12.6402 13.664 12.3984 13.4326 12.3984 13.1484V9.3281C12.3984 9.0179 12.656 8.7656 12.9726 8.7656C13.2892 8.7656 13.5468 9.0179 13.5468 9.3281V12.6328H14.7421C15.0395 12.6328 15.2813 12.8642 15.2813 13.1484Z" fill="currentColor"/>
    </g>
    <defs>
      <clipPath id="social-kakao_0">
        <rect width="24" height="24" fill="white"/>
      </clipPath>
    </defs>
  </symbol>

  <!-- Notion Icon -->
  <symbol id="social-notion" viewBox="0 0 24 24" fill="none">
    <g clip-path="url(#social-notion_0)">
      <path d="M4.45901 4.208C5.20501 4.814 5.48501 4.768 6.88701 4.674L20.102 3.881C20.382 3.881 20.149 3.601 20.056 3.555L17.86 1.968C17.44 1.642 16.879 1.268 15.805 1.361L3.01001 2.295C2.54401 2.341 2.45001 2.575 2.63601 2.761L4.45901 4.208ZM5.25201 7.288V21.192C5.25201 21.939 5.62501 22.219 6.46601 22.172L20.989 21.332C21.83 21.286 21.924 20.772 21.924 20.165V6.354C21.924 5.748 21.691 5.421 21.176 5.467L5.99901 6.354C5.43901 6.401 5.25201 6.681 5.25201 7.287V7.288ZM19.589 8.033C19.682 8.453 19.589 8.873 19.169 8.921L18.469 9.061V19.325C17.861 19.652 17.301 19.839 16.834 19.839C16.086 19.839 15.899 19.605 15.339 18.906L10.762 11.72V18.672L12.21 19C12.21 19 12.21 19.84 11.042 19.84L7.82001 20.026C7.72701 19.84 7.82001 19.373 8.14701 19.28L8.98701 19.047V9.854L7.82201 9.76C7.72801 9.34 7.96201 8.734 8.61501 8.687L12.071 8.454L16.835 15.733V9.293L15.62 9.154C15.527 8.64 15.9 8.267 16.367 8.221L19.589 8.033ZM1.93601 1.035L15.246 0.0549961C16.88 -0.0850039 17.301 0.0079961 18.328 0.754996L22.577 3.741C23.277 4.254 23.511 4.394 23.511 4.954V21.332C23.511 22.358 23.138 22.966 21.831 23.058L6.37301 23.992C5.39301 24.039 4.92501 23.899 4.41101 23.245L1.28201 19.185C0.722014 18.438 0.489014 17.879 0.489014 17.225V2.667C0.489014 1.828 0.863014 1.127 1.93601 1.035Z" fill="currentColor"/>
    </g>
    <defs>
      <clipPath id="social-notion_0">
        <rect width="24" height="24" fill="white"/>
      </clipPath>
    </defs>
  </symbol>

  <!-- Velog Icon -->
  <symbol id="social-velog" viewBox="0 0 24 24" fill="none">
    <g clip-path="url(#social-velog_0)">
      <path d="M3 0C1.338 0 0 1.338 0 3V21C0 22.662 1.338 24 3 24H21C22.662 24 24 22.662 24 21V3C24 1.338 22.662 0 21 0H3ZM9.883 6.25C10.513 6.25 10.888 6.55 11.008 7.15L12.471 15.453C12.936 14.838 13.317 14.32 13.617 13.9C14.082 13.24 14.51 12.482 14.9 11.627C15.305 10.772 15.508 10.007 15.508 9.332C15.508 8.927 15.395 8.605 15.17 8.365C14.96 8.11 14.562 7.788 13.977 7.398C14.577 6.633 15.327 6.25 16.227 6.25C16.707 6.25 17.105 6.393 17.42 6.678C17.75 6.963 17.914 7.382 17.914 7.938C17.914 8.868 17.524 10.031 16.744 11.426C15.979 12.806 14.503 14.883 12.313 17.658L10.086 17.814L8.375 8.186H6.125V7.24C6.725 7.045 7.43 6.834 8.24 6.61C9.05 6.37 9.598 6.25 9.883 6.25Z" fill="currentColor"/>
    </g>
    <defs>
      <clipPath id="social-velog_0">
        <rect width="24" height="24" fill="white"/>
      </clipPath>
    </defs>
  </symbol>
</svg>