<svg xmlns="http://www.w3.org/2000/svg" style="display: none;">
  <!-- GitHub Icon -->
  <symbol id="social-github" viewBox="0 0 24 24" fill="none">
    <g clip-path="url(#social-github_0)">
      <path fill-rule="evenodd" clip-rule="evenodd" d="M12.0099 0C5.36875 0 0 5.40833 0 12.0992C0 17.4475 3.43994 21.9748 8.21205 23.5771C8.80869 23.6976 9.02724 23.3168 9.02724 22.9965C9.02724 22.716 9.00757 21.7545 9.00757 20.7527C5.6667 21.474 4.97099 19.3104 4.97099 19.3104C4.43409 17.9082 3.63858 17.5478 3.63858 17.5478C2.54511 16.8066 3.71823 16.8066 3.71823 16.8066C4.93117 16.8868 5.56763 18.0486 5.56763 18.0486C6.64118 19.8913 8.37111 19.3707 9.06706 19.0501C9.16638 18.2688 9.48473 17.728 9.82275 17.4276C7.15817 17.1471 4.35469 16.1055 4.35469 11.458C4.35469 10.1359 4.8316 9.05428 5.58729 8.21304C5.46807 7.91263 5.0504 6.67043 5.70677 5.00787C5.70677 5.00787 6.72083 4.6873 9.00732 6.24981C9.98625 5.98497 10.9958 5.85024 12.0099 5.84911C13.024 5.84911 14.0577 5.98948 15.0123 6.24981C17.299 4.6873 18.3131 5.00787 18.3131 5.00787C18.9695 6.67043 18.5515 7.91263 18.4323 8.21304C19.2079 9.05428 19.6652 10.1359 19.6652 11.458C19.6652 16.1055 16.8617 17.1269 14.1772 17.4276C14.6148 17.8081 14.9924 18.5292 14.9924 19.6711C14.9924 21.2936 14.9727 22.5957 14.9727 22.9962C14.9727 23.3168 15.1915 23.6976 15.7879 23.5774C20.56 21.9745 23.9999 17.4475 23.9999 12.0992C24.0196 5.40833 18.6312 0 12.0099 0Z" fill="currentColor"/>
    </g>
    <defs>
      <clipPath id="social-github_0">
        <rect width="24" height="24" fill="white"/>
      </clipPath>
    </defs>
  </symbol>

  <!-- Kakao Icon -->
  <symbol id="social-kakao" viewBox="0 0 24 24" fill="none">
    <g clip-path="url(#social-kakao_0)">
      <path d="M22.125 0H1.875C0.8394 0 0 0.8394 0 1.875V22.125C0 23.1606 0.8394 24 1.875 24H22.125C23.1606 24 24 23.1606 24 22.125V1.875C24 0.8394 23.1606 0 22.125 0ZM12 18.75C11.409 18.75 10.8303 18.7087 10.2683 18.6291C9.7057 19.0256 6.4553 21.3088 6.1485 21.3516C6.1485 21.3516 6.0227 21.4005 5.9157 21.3375C5.8087 21.2745 5.8281 21.1093 5.8281 21.1093C5.8603 20.8895 6.6707 18.091 6.8201 17.576C4.0749 16.216 2.25 13.8074 2.25 11.0625C2.25 6.8168 6.6152 3.375 12 3.375C17.3848 3.375 21.75 6.8168 21.75 11.0625C21.75 15.3082 17.3848 18.75 12 18.75ZM8.0496 9.8672H7.1719V13.2089C7.1719 13.5052 6.9196 13.7461 6.6094 13.7461C6.2992 13.7461 6.0469 13.5052 6.0469 13.2089V9.8672H5.1692C4.8648 9.8672 4.6172 9.6201 4.6172 9.3164C4.6172 9.0127 4.8649 8.7656 5.1692 8.7656H8.0496C8.354 8.7656 8.6016 9.0127 8.6016 9.3164C8.6016 9.6201 8.3539 9.8672 8.0496 9.8672ZM19.0375 12.8238C19.0822 12.8826 19.1148 12.9498 19.1333 13.0213C19.1518 13.0928 19.156 13.1674 19.1455 13.2405C19.1354 13.3137 19.111 13.3842 19.0735 13.4479C19.036 13.5115 18.9863 13.5672 18.9272 13.6115C18.8299 13.6854 18.7111 13.7253 18.5889 13.725C18.5017 13.7254 18.4157 13.7054 18.3377 13.6666C18.2597 13.6277 18.1918 13.5712 18.1396 13.5014L16.8204 11.7535L16.6252 11.9487V13.176C16.625 13.3252 16.5657 13.4682 16.4602 13.5737C16.3547 13.6792 16.2117 13.7386 16.0625 13.7388C15.9134 13.7387 15.7704 13.6794 15.6649 13.5739C15.5594 13.4684 15.5001 13.3254 15.5 13.1763V9.3281C15.5 9.0179 15.7523 8.7656 16.0625 8.7656C16.3727 8.7656 16.625 9.0179 16.625 9.3281V10.5371L18.1944 8.9677C18.2751 8.887 18.386 8.8425 18.5064 8.8425C18.6468 8.8425 18.7878 8.9031 18.8935 9.0086C18.992 9.107 19.0508 9.2337 19.0589 9.3652C19.0671 9.4979 19.0229 9.6194 18.9348 9.7077L17.653 10.9894L19.0375 12.8238ZM10.6873 9.3215C10.5923 9.0516 10.3044 8.774 9.937 8.7658C9.5707 8.7741 9.2828 9.0516 9.188 9.3209L7.8425 12.8624C7.6717 13.3929 7.8208 13.5896 7.9758 13.6612C8.08802 13.7125 8.21 13.739 8.3334 13.7388C8.568 13.7388 8.7473 13.6436 8.8012 13.4907L9.0799 12.761L10.7951 12.7611L11.0736 13.4903C11.1277 13.6435 11.3071 13.7387 11.5417 13.7387C11.6651 13.7388 11.787 13.7124 11.8993 13.6612C12.0544 13.5899 12.2034 13.3931 12.0322 12.8613L10.6873 9.3215ZM9.3757 11.7648L9.9375 10.1687L10.4993 11.7648H9.3757ZM15.2813 13.1484C15.2813 13.4327 15.0395 13.664 14.7422 13.664H12.9375C12.6402 13.664 12.3984 13.4326 12.3984 13.1484V9.3281C12.3984 9.0179 12.656 8.7656 12.9726 8.7656C13.2892 8.7656 13.5468 9.0179 13.5468 9.3281V12.6328H14.7421C15.0395 12.6328 15.2813 12.8642 15.2813 13.1484Z" fill="currentColor"/>
    </g>
    <defs>
      <clipPath id="social-kakao_0">
        <rect width="24" height="24" fill="white"/>
      </clipPath>
    </defs>
  </symbol>

  <!-- Notion Icon -->
  <symbol id="social-notion" viewBox="0 0 24 24" fill="none">
    <g clip-path="url(#social-notion_0)">
      <path d="M4.45901 4.208C5.20501 4.814 5.48501 4.768 6.88701 4.674L20.102 3.881C20.382 3.881 20.149 3.601 20.056 3.555L17.86 1.968C17.44 1.642 16.879 1.268 15.805 1.361L3.01001 2.295C2.54401 2.341 2.45001 2.575 2.63601 2.761L4.45901 4.208ZM5.25201 7.288V21.192C5.25201 21.939 5.62501 22.219 6.46601 22.172L20.989 21.332C21.83 21.286 21.924 20.772 21.924 20.165V6.354C21.924 5.748 21.691 5.421 21.176 5.467L5.99901 6.354C5.43901 6.401 5.25201 6.681 5.25201 7.287V7.288ZM19.589 8.033C19.682 8.453 19.589 8.873 19.169 8.921L18.469 9.061V19.325C17.861 19.652 17.301 19.839 16.834 19.839C16.086 19.839 15.899 19.605 15.339 18.906L10.762 11.72V18.672L12.21 19C12.21 19 12.21 19.84 11.042 19.84L7.82001 20.026C7.72701 19.84 7.82001 19.373 8.14701 19.28L8.98701 19.047V9.854L7.82201 9.76C7.72801 9.34 7.96201 8.734 8.61501 8.687L12.071 8.454L16.835 15.733V9.293L15.62 9.154C15.527 8.64 15.9 8.267 16.367 8.221L19.589 8.033ZM1.93601 1.035L15.246 0.0549961C16.88 -0.0850039 17.301 0.0079961 18.328 0.754996L22.577 3.741C23.277 4.254 23.511 4.394 23.511 4.954V21.332C23.511 22.358 23.138 22.966 21.831 23.058L6.37301 23.992C5.39301 24.039 4.92501 23.899 4.41101 23.245L1.28201 19.185C0.722014 18.438 0.489014 17.879 0.489014 17.225V2.667C0.489014 1.828 0.863014 1.127 1.93601 1.035Z" fill="currentColor"/>
    </g>
    <defs>
      <clipPath id="social-notion_0">
        <rect width="24" height="24" fill="white"/>
      </clipPath>
    </defs>
  </symbol>

  <!-- Velog Icon -->
  <symbol id="social-velog" viewBox="0 0 24 24" fill="none">
    <g clip-path="url(#social-velog_0)">
      <path d="M3 0C1.338 0 0 1.338 0 3V21C0 22.662 1.338 24 3 24H21C22.662 24 24 22.662 24 21V3C24 1.338 22.662 0 21 0H3ZM9.883 6.25C10.513 6.25 10.888 6.55 11.008 7.15L12.471 15.453C12.936 14.838 13.317 14.32 13.617 13.9C14.082 13.24 14.51 12.482 14.9 11.627C15.305 10.772 15.508 10.007 15.508 9.332C15.508 8.927 15.395 8.605 15.17 8.365C14.96 8.11 14.562 7.788 13.977 7.398C14.577 6.633 15.327 6.25 16.227 6.25C16.707 6.25 17.105 6.393 17.42 6.678C17.75 6.963 17.914 7.382 17.914 7.938C17.914 8.868 17.524 10.031 16.744 11.426C15.979 12.806 14.503 14.883 12.313 17.658L10.086 17.814L8.375 8.186H6.125V7.24C6.725 7.045 7.43 6.834 8.24 6.61C9.05 6.37 9.598 6.25 9.883 6.25Z" fill="currentColor"/>
    </g>
    <defs>
      <clipPath id="social-velog_0">
        <rect width="24" height="24" fill="white"/>
      </clipPath>
    </defs>
  </symbol>

  <!-- Backend/Database Icon -->
  <symbol id="icon-backend" viewBox="0 0 24 24" fill="none">
    <g clip-path="url(#icon-backend_0)">
      <path d="M21 3.42858L21 5.57142C21 7.45983 16.2969 9 10.5 9C4.70311 9 0 7.45983 0 5.57142L0 3.42858C0 1.54017 4.70311 0 10.5 0C16.2969 0 21 1.54017 21 3.42858ZM21 8.25L21 13.0714C21 14.9598 16.2969 16.5 10.5 16.5C4.70311 16.5 0 14.9598 0 13.0714L0 8.25C2.25586 9.80358 6.38475 10.5268 10.5 10.5268C14.6152 10.5268 18.7441 9.80358 21 8.25ZM21 15.75L21 20.5714C21 22.4598 16.2969 24 10.5 24C4.70311 24 0 22.4598 0 20.5714L0 15.75C2.25586 17.3036 6.38475 18.0268 10.5 18.0268C14.6152 18.0268 18.7441 17.3036 21 15.75Z" fill="currentColor" transform="translate(1.5, 0)"/>
    </g>
    <defs>
      <clipPath id="icon-backend_0">
        <rect width="24" height="24" fill="white"/>
      </clipPath>
    </defs>
  </symbol>

  <!-- Frontend Development Icon -->
  <symbol id="icon-frontend" viewBox="0 0 24 19.2002" fill="none">
    <g clip-path="url(#icon-frontend_0)">
      <path d="M10.4597 15.3439L8.17219 14.8129C7.93219 14.7589 7.79719 14.5579 7.86469 14.3659L12.9834 0.259885C13.0509 0.0678848 13.3022 -0.0401152 13.5422 0.0138848L15.8297 0.544885C16.0697 0.598885 16.2047 0.799885 16.1372 0.991885L11.0184 15.0979C10.9472 15.2899 10.6997 15.4009 10.4597 15.3439ZM6.18469 11.9779L7.81594 10.5859C7.98844 10.4389 7.97719 10.2049 7.78594 10.0699L4.38844 7.67889L7.78594 5.28789C7.97719 5.15289 7.99219 4.91889 7.81594 4.77189L6.18469 3.37989C6.01594 3.23589 5.73094 3.22689 5.54719 3.36489L0.143438 7.41489C-0.0478125 7.55589 -0.0478125 7.79889 0.143438 7.93989L5.54719 11.9929C5.73094 12.1309 6.01594 12.1249 6.18469 11.9779ZM18.4547 11.9959L23.8584 7.94289C24.0497 7.80189 24.0497 7.55889 23.8584 7.41789L18.4547 3.36189C18.2747 3.22689 17.9897 3.23289 17.8172 3.37689L16.1859 4.76889C16.0134 4.91588 16.0247 5.14989 16.2159 5.28489L19.6134 7.67889L16.2159 10.0699C16.0247 10.2049 16.0097 10.4389 16.1859 10.5859L17.8172 11.9779C17.9859 12.1249 18.2709 12.1309 18.4547 11.9959Z" fill="currentColor" transform="translate(-0.000915527, 1.92111)"/>
    </g>
    <defs>
      <clipPath id="icon-frontend_0">
        <rect width="24" height="19.2" fill="white"/>
      </clipPath>
    </defs>
  </symbol>

  <!-- Styling & UI Icon -->
  <symbol id="icon-styling" viewBox="0 0 24 24" fill="none">
    <g clip-path="url(#icon-styling_0)">
      <path d="M9.57599 0.236018C4.91662 1.14539 1.16193 4.89071 0.243178 9.53602C-1.4912 18.3016 6.41662 24.836 12.3744 23.9126C14.3057 23.6126 15.2526 21.3532 14.3666 19.6141C13.2838 17.486 14.8307 15.0016 17.2213 15.0016L20.9572 15.0016C22.6354 15.0016 23.9947 13.6141 23.9994 11.9407C23.976 4.5532 17.2541 -1.25929 9.57599 0.236018ZM4.49943 15.0016C3.66974 15.0016 2.99943 14.3313 2.99943 13.5016C2.99943 12.672 3.66974 12.0016 4.49943 12.0016C5.32911 12.0016 5.99943 12.672 5.99943 13.5016C5.99943 14.3313 5.32911 15.0016 4.49943 15.0016ZM5.99943 9.00164C5.16974 9.00164 4.49943 8.33133 4.49943 7.50164C4.49943 6.67196 5.16974 6.00164 5.99943 6.00164C6.82911 6.00164 7.49943 6.67196 7.49943 7.50164C7.49943 8.33133 6.82911 9.00164 5.99943 9.00164ZM11.9994 6.00164C11.1697 6.00164 10.4994 5.33133 10.4994 4.50164C10.4994 3.67196 11.1697 3.00164 11.9994 3.00164C12.8291 3.00164 13.4994 3.67196 13.4994 4.50164C13.4994 5.33133 12.8291 6.00164 11.9994 6.00164ZM17.9994 9.00164C17.1697 9.00164 16.4994 8.33133 16.4994 7.50164C16.4994 6.67196 17.1697 6.00164 17.9994 6.00164C18.8291 6.00164 19.4994 6.67196 19.4994 7.50164C19.4994 8.33133 18.8291 9.00164 17.9994 9.00164Z" fill="currentColor" transform="translate(0.000572217, -0.00164278)"/>
    </g>
    <defs>
      <clipPath id="icon-styling_0">
        <rect width="24" height="24" fill="white"/>
      </clipPath>
    </defs>
  </symbol>

  <!-- State Management Icon -->
  <symbol id="icon-state" viewBox="0 0 24 24" fill="none">
    <g clip-path="url(#icon-state_0)">
      <path d="M-1 3Q-1 1.34315 0.171573 0.171573Q1.34315 -1 3 -1L15 -1Q16.6569 -1 17.8284 0.171572Q19 1.34314 19 3L19 5Q19 6.65685 17.8284 7.82843Q16.6569 9 15 9L3 9Q1.34314 9 0.171573 7.82843Q-1 6.65685 -1 5L-1 3ZM1 3L1 5Q1 5.82843 1.58579 6.41421Q2.17157 7 3 7L15 7Q15.8284 7 16.4142 6.41421Q17 5.82842 17 5L17 3Q17 2.17157 16.4142 1.58579Q15.8284 1 15 1L3 1Q2.17157 1 1.58579 1.58579Q1 2.17157 1 3Z" fill="currentColor" transform="translate(3, 4)"/>
      <path d="M-1 3Q-1 1.34314 0.171573 0.171573Q1.34315 -1 3 -1L15 -1Q16.6569 -1 17.8284 0.171572Q19 1.34315 19 3L19 5Q19 6.65685 17.8284 7.82843Q16.6568 9 15 9L3 9Q1.34315 9 0.171574 7.82843Q-1 6.65686 -1 5L-1 3ZM1 3L1 5Q1 5.82843 1.58579 6.41422Q2.17157 7 3 7L15 7Q15.8284 7 16.4142 6.41421Q17 5.82843 17 5L17 3Q17 2.17157 16.4142 1.58579Q15.8284 1 15 1L3 1Q2.17157 1 1.58579 1.58579Q1 2.17157 1 3Z" fill="currentColor" transform="translate(3, 12)"/>
      <path d="M-1 0C-1 -0.55228 -0.55228 -1 0 -1C0.55228 -1 1 -0.55228 1 0L1 0.0100002C1 0.56228 0.55228 1.01 0 1.01C-0.55228 1.01 -1 0.56228 -1 0.0100002L-1 0Z" fill="currentColor" transform="translate(7, 8)"/>
      <path d="M-1 0C-1 -0.55228 -0.55228 -1 0 -1C0.55228 -1 1 -0.55228 1 0L1 0.0100002C1 0.56228 0.55228 1.01 0 1.01C-0.55228 1.01 -1 0.56228 -1 0.0100002L-1 0Z" fill="currentColor" transform="translate(7, 16)"/>
    </g>
    <defs>
      <clipPath id="icon-state_0">
        <rect width="24" height="24" fill="white"/>
      </clipPath>
    </defs>
  </symbol>

  <!-- Animation & Motion Icon -->
  <symbol id="icon-motion" viewBox="0 0 24 24" fill="none">
    <g clip-path="url(#icon-motion_0)">
      <path d="M7 18L7 13L12 13Q12.1989 13 12.3827 12.9239Q12.5665 12.8478 12.7071 12.7071Q12.8478 12.5665 12.9239 12.3827Q13 12.1989 13 12Q13 11.8011 12.9239 11.6173Q12.8478 11.4335 12.7071 11.2929L8.41421 7L12 7Q12.0985 7 12.1951 6.98078Q12.2917 6.96157 12.3827 6.92388Q12.4737 6.88619 12.5556 6.83147Q12.6375 6.77675 12.7071 6.70711Q12.7767 6.63746 12.8315 6.55557Q12.8862 6.47368 12.9239 6.38268Q12.9616 6.29169 12.9808 6.19509Q13 6.09849 13 6L13 0Q13 -0.0984914 12.9808 -0.19509Q12.9616 -0.291689 12.9239 -0.382683Q12.8862 -0.473678 12.8315 -0.55557Q12.7767 -0.637463 12.7071 -0.707107Q12.6375 -0.776751 12.5556 -0.831469Q12.4737 -0.886188 12.3827 -0.923879Q12.2917 -0.961571 12.1951 -0.980785Q12.0985 -1 12 -1L0 -1Q-0.0984914 -1 -0.19509 -0.980785Q-0.291689 -0.96157 -0.382683 -0.923879Q-0.473678 -0.886188 -0.55557 -0.83147Q-0.637463 -0.776751 -0.707107 -0.707107Q-0.776751 -0.637463 -0.831469 -0.55557Q-0.886188 -0.473678 -0.923879 -0.382683Q-0.961571 -0.291689 -0.980785 -0.19509Q-1 -0.0984914 -1 0Q-1 0.198912 -0.92388 0.382683Q-0.847759 0.566454 -0.707107 0.707107L3.58579 5L0 5Q-0.0984914 5 -0.19509 5.01921Q-0.291689 5.03843 -0.382683 5.07612Q-0.473678 5.11381 -0.55557 5.16853Q-0.637463 5.22325 -0.707107 5.29289Q-0.776751 5.36254 -0.831469 5.44443Q-0.886188 5.52632 -0.923879 5.61732Q-0.961571 5.70831 -0.980785 5.80491Q-1 5.90151 -1 6L-1 12Q-1 12.1989 -0.923879 12.3827Q-0.847759 12.5665 -0.707107 12.7071L5.29289 18.7071Q5.43355 18.8478 5.61732 18.9239Q5.80109 19 6 19Q6.09849 19 6.19509 18.9808Q6.29169 18.9616 6.38268 18.9239Q6.47368 18.8862 6.55557 18.8315Q6.63746 18.7767 6.70711 18.7071Q6.77675 18.6375 6.83147 18.5556Q6.88619 18.4737 6.92388 18.3827Q6.96157 18.2917 6.98078 18.1951Q7 18.0985 7 18ZM2.41421 1L6.41421 5L11 5L11 1L2.41421 1ZM9.58579 11L1 11L1 7L5.58579 7L9.58579 11ZM5 15.5858L5 13L2.41421 13L5 15.5858Z" fill="currentColor" transform="translate(6, 3)"/>
    </g>
    <defs>
      <clipPath id="icon-motion_0">
        <rect width="24" height="24" fill="white"/>
      </clipPath>
    </defs>
  </symbol>

  <!-- Build Tools Icon -->
  <symbol id="icon-build" viewBox="0 0 24 24" fill="none">
    <g clip-path="url(#icon-build_0)">
      <path d="M23.4914 18.5484L18.0023 13.0594C16.9195 11.9766 15.3023 11.7656 13.9992 12.4078L9.00234 7.41094L9.00234 4.5L3.00234 0L0.00234371 3L4.50234 9L7.41328 9L12.4102 13.9969C11.7727 15.3 11.9789 16.9172 13.0617 18L18.5508 23.4891C19.2352 24.1734 20.3414 24.1734 21.0211 23.4891L23.4914 21.0187C24.1711 20.3344 24.1711 19.2281 23.4914 18.5484ZM15.5508 10.5469C16.8773 10.5469 18.1242 11.0625 19.0617 12L19.9711 12.9094C20.7117 12.5859 21.4148 12.1359 22.0242 11.5266C23.7633 9.7875 24.3539 7.34062 23.8008 5.11875C23.6977 4.69687 23.168 4.55156 22.8586 4.86094L19.3711 8.34844L16.1883 7.81875L15.6586 4.63594L19.1461 1.14844C19.4555 0.839062 19.3055 0.309375 18.8789 0.201562C16.657 -0.346875 14.2102 0.24375 12.4758 1.97813C11.1398 3.31406 10.5117 5.07656 10.5445 6.83438L14.393 10.6828C14.7727 10.5938 15.1664 10.5469 15.5508 10.5469ZM10.6805 14.3906L8.02266 11.7328L0.878906 18.8812C-0.292969 20.0531 -0.292969 21.9516 0.878906 23.1234C2.05078 24.2953 3.94922 24.2953 5.12109 23.1234L10.9148 17.3297C10.5586 16.3969 10.4508 15.3797 10.6805 14.3906ZM3.00234 22.125C2.38359 22.125 1.87734 21.6188 1.87734 21C1.87734 20.3766 2.37891 19.875 3.00234 19.875C3.62578 19.875 4.12734 20.3766 4.12734 21C4.12734 21.6188 3.62578 22.125 3.00234 22.125Z" fill="currentColor" transform="translate(-0.00234371, 0)"/>
    </g>
    <defs>
      <clipPath id="icon-build_0">
        <rect width="24" height="24" fill="white"/>
      </clipPath>
    </defs>
  </symbol>

  <!-- Design & Collaboration Icon -->
  <symbol id="icon-collaboration" viewBox="0 0 24 24" fill="none">
    <g clip-path="url(#icon-collaboration_0)">
      <path d="M5.13117 11.4398L11.4396 5.13234L9.37149 3.06422L6.48024 5.95547C6.40773 6.02812 6.32015 6.06445 6.2175 6.06445C6.11486 6.06445 6.02728 6.02812 5.95477 5.95547L5.4293 5.43C5.28399 5.28469 5.28399 5.04938 5.4293 4.90453L8.32055 2.01328L6.74368 0.435938C6.16289 -0.144843 5.22164 -0.144843 4.64086 0.435938L0.435706 4.64109C-0.144607 5.22188 -0.145075 6.16313 0.435706 6.74391L5.13117 11.4398ZM23.3407 5.96484C24.2201 5.08547 24.2196 3.66 23.3407 2.78062L21.2196 0.659531C20.3402 -0.219844 18.9143 -0.219844 18.0345 0.659531L15.8773 2.81625L21.1835 8.1225L23.3407 5.96484ZM14.8165 3.8775L0.894611 17.7975L0.0152371 22.8337C-0.103357 23.513 0.488206 24.1045 1.16789 23.985L6.20461 23.1019L20.1227 9.18328L14.8165 3.8775ZM23.5648 17.257L21.9879 15.6802L19.0966 18.5714C18.9513 18.7167 18.716 18.7167 18.5712 18.5714L18.0457 18.0459C17.9009 17.9006 17.9009 17.6653 18.0457 17.5205L20.937 14.6292L18.8679 12.5602L12.5595 18.8677L17.2568 23.5645C17.8376 24.1453 18.7788 24.1453 19.3596 23.5645L23.5648 19.3598C24.1455 18.7791 24.1455 17.8378 23.5648 17.257Z" fill="currentColor" transform="translate(-0.000237141, -0.00046923)"/>
    </g>
    <defs>
      <clipPath id="icon-collaboration_0">
        <rect width="24" height="24" fill="white"/>
      </clipPath>
    </defs>
  </symbol>
</svg>